<?xml version="1.0" encoding="utf-8"?>
<!-- Generator: Adobe Illustrator 24.3.0, SVG Export Plug-In . SVG Version: 6.00 Build 0)  -->
<svg version="1.1" id="レイヤー_1" xmlns="http://www.w3.org/2000/svg" xmlns:xlink="http://www.w3.org/1999/xlink" x="0px"
	 y="0px" viewBox="0 0 91 29" style="enable-background:new 0 0 91 29;" xml:space="preserve">
<style type="text/css">
	.st0{enable-background:new    ;}
	.st1{fill:#383838;}
</style>
<g class="st0">
	<path class="st1" d="M2.1,6h2.1v15.1h8.4V23H2.1V6z"/>
	<path class="st1" d="M21.3,6h2.1v17h-2.1V6z"/>
	<path class="st1" d="M33.5,6h2.1l9.6,13.6h0V6h2.1v17h-2.1L35.6,9.6h0V23h-2.1V6z"/>
	<path class="st1" d="M57.3,6h2.1v9.3h0L67.1,6h2.7l-6.6,7.8L70,23h-2.6l-5.5-7.6l-2.5,2.9V23h-2.1V6z"/>
	<path class="st1" d="M77.2,20.5l1.3-1.6c1.2,1.5,3,2.3,4.7,2.3c2.1,0,3.5-1,3.5-2.6c0-1.9-1.5-2.4-3.8-3.3c-2.5-0.9-5.1-2-5.1-5
		c0-2.5,2.3-4.5,5.2-4.5c1.9,0,3.8,0.7,5.4,2l-1.3,1.7c-1.4-1.1-2.8-1.7-4.1-1.7c-1.6,0-3,0.9-3,2.5s1.5,2.2,3.6,3
		c2.9,1.1,5.3,1.9,5.3,5.1c0,3.1-2.7,4.8-5.7,4.8C81.1,23.1,78.9,22.3,77.2,20.5z"/>
</g>
</svg>
