<svg xmlns="http://www.w3.org/2000/svg" viewBox="0 0 473.5 120.47"><defs><style>.cls-1{fill:#fff;}</style></defs><g id="レイヤー_2" data-name="レイヤー 2"><g id="レイヤー_1-2" data-name="レイヤー 1"><path class="cls-1" d="M57.66,0c29.81,0,56.07,24,56.07,58.55,0,37.26-25.73,61.92-57.48,61.92C25,120.47,0,94.92,0,61.92,0,29.81,22,0,57.66,0ZM54.29,3.9c-20.58,0-39,18.46-39,52.88,0,34.77,18.1,59.61,44.89,59.61,20.93,0,38.32-18.09,38.32-52.34C98.47,25.73,79.84,3.9,54.29,3.9Z"/><path class="cls-1" d="M172.6,118.17a12.75,12.75,0,0,1-5.5,1.77c-10.47,0-15.61-7.09-15.61-20.22V48.44H139.78l-.36-.71,2.13-4.08h9.94V26.79a139.52,139.52,0,0,0,10.64-10.11l1.25.18c-.18,3.19-.54,12.59-.54,26.79h19a6.33,6.33,0,0,1-1.07,4.79H162.84V94.57c0,14.55,5.15,17.39,11,17.39A21.59,21.59,0,0,0,184,109.3l.71,2.3Z"/><path class="cls-1" d="M238.71,118.17a12.79,12.79,0,0,1-5.5,1.77c-10.47,0-15.61-7.09-15.61-20.22V48.44H205.89l-.36-.71,2.13-4.08h9.94V26.79a139.52,139.52,0,0,0,10.64-10.11l1.24.18c-.17,3.19-.53,12.59-.53,26.79h19a6.33,6.33,0,0,1-1.07,4.79H229V94.57c0,14.55,5.15,17.39,11,17.39a21.59,21.59,0,0,0,10.12-2.66l.71,2.3Z"/><path class="cls-1" d="M305.39,41.52c21.11,0,35.84,17,35.84,37.79,0,26.79-19.34,40.63-36,40.63-22.18,0-36.37-18.63-36.37-37.79C268.84,54.29,290.66,41.52,305.39,41.52Zm-2.13,3.72c-12.42,0-20.94,13.31-20.94,31.41,0,23.78,10.65,39.21,25.2,39.21,11.17,0,20.22-8.34,20.22-33.36C327.74,63.34,319.4,45.24,303.26,45.24Z"/><path class="cls-1" d="M399.87,117.81h-36.2v-2.13c10.29-1.59,11-2.48,11-15.43V64.58c0-11.35,0-12.42-9.05-14.54V48.26a74.55,74.55,0,0,0,21.12-7.45c-.18,3.19-.18,12.6-.53,19.16,4.25-7.45,13.3-18.45,21.46-18.45,5.15,0,8.7,3.55,8.7,6.92a10.57,10.57,0,0,1-4.44,8.16c-1.77,1.24-3.19.89-4.08,0-2.66-2.66-4.79-4.44-8-4.44-3.55,0-9.05,3.91-13.66,12.78v35.31c0,12.6.88,13.48,13.66,15.43Z"/><path class="cls-1" d="M438.55,117.81v-2.13c11-1.77,11.71-2.66,11.71-15.43V64.58c0-12.06-.71-12.95-10.12-14.72V48.08a95.48,95.48,0,0,0,22-6.92c-.17,3.55-.35,14-.35,22v36.91c0,13.13,1.06,13.84,11.71,15.61v2.13Zm16.67-99.36A7.74,7.74,0,0,1,447.77,11a7.57,7.57,0,0,1,7.63-7.63A7.32,7.32,0,0,1,462.85,11,7.53,7.53,0,0,1,455.22,18.45Z"/></g></g></svg>